<?xml version="1.0" standalone="no"?>
<!DOCTYPE svg PUBLIC "-//W3C//DTD SVG 20010904//EN"
 "http://www.w3.org/TR/2001/REC-SVG-20010904/DTD/svg10.dtd">
<svg version="1.0" xmlns="http://www.w3.org/2000/svg"
 width="96.000000pt" height="36.000000pt" viewBox="0 0 96.000000 36.000000"
 preserveAspectRatio="xMidYMid meet">

<g transform="translate(0.000000,36.000000) scale(0.100000,-0.100000)"
fill="#000000" stroke="none">
<path d="M0 180 l0 -180 195 0 195 0 0 180 0 180 -195 0 -195 0 0 -180z m136
44 l27 -47 24 47 c13 25 30 46 39 46 11 0 6 -15 -21 -63 -19 -36 -35 -78 -35
-95 0 -18 -4 -32 -10 -32 -5 0 -10 14 -10 32 0 17 -16 59 -35 95 -27 47 -32
63 -21 63 8 0 27 -21 42 -46z"/>
<path d="M450 190 l0 -90 35 0 c51 0 85 36 85 90 0 54 -34 90 -85 90 l-35 0 0
-90z m81 54 c7 -9 14 -34 14 -56 0 -42 -22 -68 -57 -68 -16 0 -18 9 -18 70 0
67 1 70 24 70 13 0 30 -7 37 -16z"/>
<path d="M600 190 c0 -53 4 -90 10 -90 6 0 10 31 10 73 l1 72 31 -72 c43 -101
58 -97 58 17 0 53 -4 90 -10 90 -6 0 -10 -30 -11 -67 l-1 -68 -31 68 c-43 94
-57 89 -57 -23z"/>
<path d="M767 267 c-31 -22 -18 -58 31 -85 23 -13 42 -30 42 -38 0 -16 -41
-29 -71 -21 -13 3 -19 1 -16 -6 5 -16 61 -21 87 -7 13 7 20 21 20 39 0 24 -7
32 -45 50 -25 12 -45 28 -45 36 0 17 42 30 66 21 10 -4 14 -1 12 6 -6 18 -60
21 -81 5z"/>
</g>
</svg>
